# Blender v2.90.1 OBJ File: ''
# www.blender.org
mtllib five_shapes.mtl
o Cube
v 1.141835 -0.416185 1.384765
v 1.249084 -0.521884 0.802317
v 0.942611 0.008833 1.270951
v 1.049860 -0.096866 0.688504
v 1.827915 -0.077232 1.449585
v 1.935164 -0.182930 0.867138
v 1.628691 0.347786 1.335772
v 1.735940 0.242088 0.753324
vt 0.625000 0.500000
vt 0.875000 0.500000
vt 0.875000 0.750000
vt 0.625000 0.750000
vt 0.375000 0.750000
vt 0.625000 1.000000
vt 0.375000 1.000000
vt 0.375000 0.000000
vt 0.625000 0.000000
vt 0.625000 0.250000
vt 0.375000 0.250000
vt 0.125000 0.500000
vt 0.375000 0.500000
vt 0.125000 0.750000
vn -0.1783 0.1757 0.9682
vn -0.4125 0.8800 -0.2356
vn 0.8934 0.4414 0.0844
vn 0.1783 -0.1757 -0.9682
vn -0.8934 -0.4414 -0.0844
vn 0.4125 -0.8800 0.2356
usemtl Material
s off
f 1/1/1 5/2/1 7/3/1 3/4/1
f 4/5/2 3/4/2 7/6/2 8/7/2
f 8/8/3 7/9/3 5/10/3 6/11/3
f 6/12/4 2/13/4 4/5/4 8/14/4
f 2/13/5 1/1/5 3/4/5 4/5/5
f 6/11/6 5/10/6 1/1/6 2/13/6
o Cube.2_Cube.001
v -1.436114 -1.248016 1.169766
v -1.682852 -0.089302 1.096224
v -1.876511 -1.370369 0.719554
v -2.123249 -0.211655 0.646013
v -0.878035 -1.165254 0.601361
v -1.124774 -0.006540 0.527820
v -1.318433 -1.287607 0.151150
v -1.565171 -0.128893 0.077608
vt 0.625000 0.500000
vt 0.625000 0.750000
vt 0.875000 0.750000
vt 0.875000 0.500000
vt 0.375000 0.750000
vt 0.375000 1.000000
vt 0.625000 1.000000
vt 0.375000 0.000000
vt 0.375000 0.250000
vt 0.625000 0.250000
vt 0.625000 0.000000
vt 0.125000 0.500000
vt 0.125000 0.750000
vt 0.375000 0.500000
vn 0.2079 -0.9762 0.0620
vn -0.6864 -0.1907 -0.7017
vn 0.6968 0.1033 -0.7097
vn -0.2079 0.9762 -0.0620
vn -0.6968 -0.1033 0.7097
vn 0.6864 0.1907 0.7017
usemtl Material.001
s off
f 9/15/7 11/16/7 15/17/7 13/18/7
f 12/19/8 16/20/8 15/21/8 11/16/8
f 16/22/9 14/23/9 13/24/9 15/25/9
f 14/26/10 16/27/10 12/19/10 10/28/10
f 10/28/11 12/19/11 11/16/11 9/15/11
f 14/23/12 10/28/12 9/15/12 13/24/12
o Cube.001_Cube.002
v 1.109957 -0.442952 -1.117269
v 1.227148 -0.558450 -1.753711
v 1.006608 0.247607 -1.015323
v 0.744615 0.470971 -2.029375
v 2.051380 0.626854 -1.030184
v 2.187795 0.175033 -1.511105
v 1.650627 1.091975 -1.296261
v 2.155913 0.704589 -1.543877
v 2.250352 -0.052942 -1.657039
v 1.767819 0.976478 -1.932703
v 1.650627 1.091975 -1.296261
v 2.133161 0.062555 -1.020597
v 0.627423 0.586468 -1.392933
v 1.109957 -0.442952 -1.117269
vt 0.625000 0.500000
vt 0.875000 0.500000
vt 0.875000 0.750000
vt 0.625000 0.750000
vt 0.375000 0.750000
vt 0.625000 0.750000
vt 0.625000 1.000000
vt 0.375000 1.000000
vt 0.375000 0.000000
vt 0.625000 0.000000
vt 0.625000 0.250000
vt 0.375000 0.250000
vt 0.125000 0.500000
vt 0.375000 0.500000
vt 0.125000 0.750000
vt 0.625000 0.500000
vt 0.375000 0.250000
vt 0.625000 0.250000
vt 0.375000 0.000000
vt 0.625000 0.000000
vt 0.875000 0.750000
vt 0.875000 0.500000
vn -0.0319 0.1269 0.9914
vn -0.4125 0.8800 -0.2356
vn 0.8608 0.4473 0.2429
vn 0.1783 -0.1757 -0.9682
vn -0.8934 -0.4414 -0.0844
vn 0.4125 -0.8800 0.2356
vn 0.8467 0.1803 -0.5006
vn 0.5970 0.8014 -0.0355
vn 0.9776 0.1533 0.1440
vn -0.3290 0.5144 0.7919
vn -0.7763 -0.2042 0.5963
vn -0.0956 0.0031 0.9954
usemtl Material.002
s off
f 17/29/13 21/30/13 23/31/13 19/32/13
f 20/33/14 29/34/14 27/35/14 26/36/14
f 24/37/15 23/38/15 21/39/15 22/40/15
f 25/41/16 18/42/16 20/33/16 26/43/16
f 18/42/17 30/44/17 29/34/17 20/33/17
f 25/45/18 28/46/18 30/44/18 18/42/18
f 24/37/19 22/40/19 25/45/19 26/47/19
f 23/38/20 24/37/20 26/47/20 27/48/20
f 22/40/21 21/39/21 28/46/21 25/45/21
f 19/32/22 23/31/22 27/49/22 29/34/22
f 17/29/23 19/32/23 29/34/23 30/44/23
f 21/30/24 17/29/24 30/44/24 28/50/24
o Cube.004
v -0.803642 0.909024 1.171220
v -0.696393 0.803325 0.588773
v -1.002867 1.334042 0.931418
v -0.895617 1.228343 0.348970
v -0.117562 1.247977 1.236041
v -0.010313 1.142279 0.653594
v -0.316786 1.672995 1.122227
v -0.209537 1.567297 0.539780
v -0.257886 0.827540 0.681447
v -0.677056 1.706884 0.958103
v -0.553400 1.358954 0.360071
v -0.327495 1.113627 1.481077
vt 0.750000 0.500000
vt 0.875000 0.500000
vt 0.875000 0.750000
vt 0.750000 0.750000
vt 0.375000 0.875000
vt 0.625000 0.875000
vt 0.625000 1.000000
vt 0.375000 1.000000
vt 0.375000 0.000000
vt 0.625000 0.000000
vt 0.625000 0.250000
vt 0.375000 0.250000
vt 0.250000 0.500000
vt 0.375000 0.500000
vt 0.375000 0.750000
vt 0.250000 0.750000
vt 0.625000 0.500000
vt 0.625000 0.750000
vt 0.375000 0.375000
vt 0.625000 0.375000
vt 0.125000 0.500000
vt 0.125000 0.750000
vn 0.0244 0.5395 0.8416
vn -0.0510 0.9289 -0.3669
vn 0.8934 0.4414 0.0844
vn 0.2005 -0.4166 -0.8867
vn -0.8846 -0.4595 -0.0795
vn 0.1130 -0.9520 0.2843
vn 0.7515 -0.6032 0.2672
vn 0.4040 -0.1975 -0.8932
vn -0.5395 0.7452 -0.3919
vn -0.5430 0.2961 0.7858
usemtl Material.004
s off
f 42/51/25 35/52/25 37/53/25 40/54/25
f 41/55/26 40/56/26 37/57/26 38/58/26
f 38/59/27 37/60/27 35/61/27 36/62/27
f 39/63/28 32/64/28 34/65/28 41/66/28
f 32/64/29 31/67/29 33/68/29 34/65/29
f 39/69/30 42/70/30 31/67/30 32/64/30
f 36/62/31 35/61/31 42/70/31 39/69/31
f 36/71/32 39/63/32 41/66/32 38/72/32
f 34/65/33 33/68/33 40/56/33 41/55/33
f 31/67/34 42/51/34 40/54/34 33/68/34
o Cube.003_Cube.005
v -1.096937 0.735825 -1.808338
v -1.285434 0.892352 -1.856477
v -1.018114 0.359096 -1.341338
v -1.509095 0.669409 -1.411747
v -0.684251 1.186280 -1.943479
v -1.012983 1.411064 -2.017745
v -0.585646 0.944821 -1.630097
v -1.071153 1.297595 -1.685387
vt 0.625000 0.500000
vt 0.875000 0.500000
vt 0.875000 0.750000
vt 0.625000 0.750000
vt 0.375000 0.750000
vt 0.625000 1.000000
vt 0.375000 1.000000
vt 0.375000 0.000000
vt 0.625000 0.000000
vt 0.625000 0.250000
vt 0.375000 0.250000
vt 0.125000 0.500000
vt 0.375000 0.500000
vt 0.125000 0.750000
vn 0.4726 -0.6353 -0.6107
vn 0.1163 0.3476 0.9304
vn 0.4883 0.7773 0.3967
vn -0.8622 0.4971 -0.0975
vn -0.4076 -0.7319 -0.5461
vn 0.0070 -0.2970 -0.9549
usemtl Material.005
s off
f 43/73/35 47/74/35 49/75/35 45/76/35
f 46/77/36 45/76/36 49/78/36 50/79/36
f 50/80/37 49/81/37 47/82/37 48/83/37
f 48/84/38 44/85/38 46/77/38 50/86/38
f 44/85/39 43/73/39 45/76/39 46/77/39
f 48/83/40 47/82/40 43/73/40 44/85/40
